HIERARCHY
ROOT Hips
{
	OFFSET 0.00000 0.00000 0.00000
	CHANNELS 6 Xposition Yposition Zposition Zrotation Yrotation Xrotation 
	JOINT LHipJoint
	{
		OFFSET 0 0 0
		CHANNELS 3 Zrotation Yrotation Xrotation
		JOINT LeftUpLeg
		{
			OFFSET 1.35324 -1.81393 0.86676
			CHANNELS 3 Zrotation Yrotation Xrotation
			JOINT LeftLeg
			{
				OFFSET 2.44396 -6.71474 0.00000
				CHANNELS 3 Zrotation Yrotation Xrotation
				JOINT LeftFoot
				{
					OFFSET 2.78389 -7.64869 0.00000
					CHANNELS 3 Zrotation Yrotation Xrotation
					JOINT LeftToeBase
					{
						OFFSET 0.15837 -0.43512 1.94704
						CHANNELS 3 Zrotation Yrotation Xrotation
						End Site
						{
							OFFSET 0.00000 -0.00000 1.00735
						}
					}
				}
			}
		}
	}
	JOINT RHipJoint
	{
		OFFSET 0 0 0
		CHANNELS 3 Zrotation Yrotation Xrotation
		JOINT RightUpLeg
		{
			OFFSET -1.14956 -1.81393 0.86676
			CHANNELS 3 Zrotation Yrotation Xrotation
			JOINT RightLeg
			{
				OFFSET -2.55632 -7.02343 0.00000
				CHANNELS 3 Zrotation Yrotation Xrotation
				JOINT RightFoot
				{
					OFFSET -2.63038 -7.22691 0.00000
					CHANNELS 3 Zrotation Yrotation Xrotation
					JOINT RightToeBase
					{
						OFFSET -0.22277 -0.61205 2.06087
						CHANNELS 3 Zrotation Yrotation Xrotation
						End Site
						{
							OFFSET -0.00000 -0.00000 1.07867
						}
					}
				}
			}
		}
	}
	JOINT LowerBack
	{
		OFFSET 0 0 0
		CHANNELS 3 Zrotation Yrotation Xrotation
		JOINT Spine
		{
			OFFSET -0.05682 2.18266 -0.21665
			CHANNELS 3 Zrotation Yrotation Xrotation
			JOINT Spine1
			{
				OFFSET 0.08791 2.18267 0.00700
				CHANNELS 3 Zrotation Yrotation Xrotation
				JOINT Neck
				{
					OFFSET 0 0 0
					CHANNELS 3 Zrotation Yrotation Xrotation
					JOINT Neck1
					{
						OFFSET -0.14851 1.58495 0.25390
						CHANNELS 3 Zrotation Yrotation Xrotation
						JOINT Head
						{
							OFFSET 0.13566 1.62237 -0.28476
							CHANNELS 3 Zrotation Yrotation Xrotation
							End Site
							{
								OFFSET 0.05601 1.65818 -0.12921
							}
						}
					}
				}
				JOINT LeftShoulder
				{
					OFFSET 0 0 0
					CHANNELS 3 Zrotation Yrotation Xrotation
					JOINT LeftArm
					{
						OFFSET 3.23337 0.97114 -0.51072
						CHANNELS 3 Zrotation Yrotation Xrotation
						JOINT LeftForeArm
						{
							OFFSET 5.19964 -0.00068 -0.00051
							CHANNELS 3 Zrotation Yrotation Xrotation
							JOINT LeftHand
							{
								OFFSET 3.32189 -0.00000 0.00000
								CHANNELS 3 Zrotation Yrotation Xrotation
								JOINT LeftFingerBase
								{
									OFFSET 0 0 0
									CHANNELS 3 Zrotation Yrotation Xrotation
									JOINT LeftHandIndex1
									{
										OFFSET 0.64562 -0.00000 0.00000
										CHANNELS 3 Zrotation Yrotation Xrotation
										End Site
										{
											OFFSET 0.52051 -0.00000 0.00000
										}
									}
								}
								JOINT LThumb
								{
									OFFSET 0 0 0
									CHANNELS 3 Zrotation Yrotation Xrotation
									End Site
									{
										OFFSET 0.52846 -0.00000 0.52846
									}
								}
							}
						}
					}
				}
				JOINT RightShoulder
				{
					OFFSET 0 0 0
					CHANNELS 3 Zrotation Yrotation Xrotation
					JOINT RightArm
					{
						OFFSET -2.95712 1.24697 -0.52388
						CHANNELS 3 Zrotation Yrotation Xrotation
						JOINT RightForeArm
						{
							OFFSET -5.65950 -0.00000 -0.00000
							CHANNELS 3 Zrotation Yrotation Xrotation
							JOINT RightHand
							{
								OFFSET -3.37604 -0.00000 -0.00000
								CHANNELS 3 Zrotation Yrotation Xrotation
								JOINT RightFingerBase
								{
									OFFSET 0 0 0
									CHANNELS 3 Zrotation Yrotation Xrotation
									JOINT RightHandIndex1
									{
										OFFSET -0.82470 -0.00000 -0.00000
										CHANNELS 3 Zrotation Yrotation Xrotation
										End Site
										{
											OFFSET -0.66490 -0.00000 -0.00000
										}
									}
								}
								JOINT RThumb
								{
									OFFSET 0 0 0
									CHANNELS 3 Zrotation Yrotation Xrotation
									End Site
									{
										OFFSET -0.67505 -0.00000 0.67505
									}
								}
							}
						}
					}
				}
			}
		}
	}
}
MOTION
Frames: 14
Frame Time: .0083333
11.934 17.6827 -46.0196 0 0 0 0 0 0 -21 0 0 0 0 0 0 0 0 0 0 0 0 0 0 21 0 0 0 0 0 0 0 0 0 0 0 0 0 0 0 0 0 0 0 0 0 0 -16 0 0 21 0 0 11 0 0 0 -8 0 0 0 0 0 0 0 0 0 0 0 0 0 0 0 0 0 0 0 0 8 0 0 0 0 0 0 0 0 0 0 0 0 0 0 0 0 0
11.9340 17.6827 -46.0196 -4.8419 -8.0854 2.9661 0.0000 0.0000 0.0000 -10.4584 -10.0574 -20.0125 8.5209 16.4893 54.4180 0.6959 -6.0171 -14.8728 0.2825 -3.4184 -9.4459 0.0000 0.0000 0.0000 24.3181 5.3209 -21.8777 -5.1583 -13.5599 41.5022 -1.4988 -0.5031 -23.3420 -1.7243 -8.2665 23.5265 -1.7980 1.7804 7.4792 3.4776 2.2379 5.4237 4.4670 1.0119 1.2153 -13.0451 3.3434 -9.6968 4.7271 6.8035 41.5972 5.4226 1.4579 15.8134 -0.0000 0.0000 0.0000 -84.4700 -2.0591 0.5417 24.5109 -35.6998 -8.0027 -0.0000 -0.0000 1.9812 12.8011 36.2430 7.6508 -7.1250 0.0000 -0.0000 -26.9039 64.9835 -13.4515 -0.0000 0.0000 0.0000 84.6988 -2.0560 6.2586 -16.4004 26.0606 -3.8202 0.0000 -0.0000 -10.6121 -7.7328 16.3313 -2.1866 7.1250 -0.0000 -0.0000 13.3363 -13.8166 10.0469
11.9072 17.6818 -46.0089 -4.9405 -7.4612 2.9587 0.0000 0.0000 0.0000 -9.8907 -10.4663 -20.9166 8.8676 16.7217 55.6310 0.5338 -6.7415 -13.1378 0.3171 -3.6200 -10.0099 0.0000 0.0000 0.0000 24.5326 4.9955 -21.8087 -5.1447 -13.5449 41.4441 -1.5270 -0.3959 -23.5216 -1.8518 -8.5502 24.3983 -1.6861 1.6522 7.6075 3.5328 2.0757 5.3597 4.4677 0.9359 1.0944 -13.1111 3.3913 -9.4436 4.8178 6.8228 41.6843 5.4693 1.4677 15.7865 0.0000 0.0000 0.0000 -84.4186 -1.7214 0.4727 24.5944 -35.7866 -8.0515 -0.0000 -0.0000 1.9156 13.0169 36.4173 7.8145 -7.1250 0.0000 -0.0000 -26.8749 65.1949 -13.5666 0.0000 0.0000 0.0000 84.4886 -2.0088 5.8855 -16.1925 25.7810 -3.7293 0.0000 -0.0000 -10.1341 -7.3494 16.2243 -2.0639 7.1250 -0.0000 -0.0000 13.5922 -13.9457 10.2130
11.8806 17.6791 -45.9965 -5.0658 -6.8446 2.9303 0.0000 0.0000 0.0000 -9.3025 -10.9385 -21.6971 9.1814 16.9230 56.7154 0.3836 -7.5057 -11.4560 0.2076 -2.9334 -8.0933 0.0000 0.0000 0.0000 24.7969 4.5432 -21.6988 -5.1031 -13.4990 41.2663 -1.5613 -0.2713 -23.7400 -1.8577 -8.5633 24.4384 -1.6298 1.4430 7.5587 3.6776 1.8006 5.3913 4.6088 0.7955 1.1769 -13.4023 3.4914 -9.1056 4.8602 6.9661 41.6094 5.5313 1.5023 15.6363 0.0000 0.0000 0.0000 -84.5994 -1.4158 0.1727 24.7013 -35.8971 -8.1141 -0.0000 -0.0000 1.9308 12.5494 36.3477 7.5157 -7.1250 0.0000 -0.0000 -27.3007 65.0042 -13.6768 0.0000 0.0000 0.0000 84.0539 -1.9514 6.1279 -16.1465 25.7189 -3.7093 0.0000 -0.0000 -10.0644 -7.2523 15.8277 -1.9879 7.1250 -0.0000 -0.0000 13.6704 -14.3393 10.1575
11.8609 17.6868 -45.9790 -5.1810 -6.5293 2.8900 0.0000 0.0000 0.0000 -8.7948 -11.2532 -22.4397 9.4825 17.1084 57.7443 0.2588 -8.1239 -9.9814 0.0911 -1.9467 -5.3583 0.0000 0.0000 0.0000 25.0082 4.1433 -21.5601 -5.0564 -13.4470 41.0657 -1.5643 -0.1870 -23.7342 -1.8282 -8.4987 24.2392 -1.3139 1.5299 7.5637 3.5889 1.9271 5.6826 4.3338 0.8598 1.4771 -13.3199 3.2658 -9.6551 4.9858 6.6720 41.6614 5.5707 1.3974 15.8263 0.0000 -0.0000 0.0000 -84.3545 -1.8642 0.4197 24.6845 -35.8798 -8.1043 -0.0000 -0.0000 1.8160 11.8005 35.6578 6.9437 -7.1250 0.0000 -0.0000 -27.3100 64.2012 -13.1753 0.0000 -0.0000 0.0000 84.0920 -1.3259 5.6488 -16.0928 25.6463 -3.6860 0.0000 -0.0000 -10.0443 -7.2123 15.3716 -1.9213 7.1250 -0.0000 -0.0000 13.7145 -14.7874 10.0570
11.8438 17.6986 -45.9565 -5.3377 -6.1939 2.9552 0.0000 0.0000 0.0000 -8.2443 -11.5759 -23.2703 9.7621 17.2739 58.6902 0.1485 -8.5766 -8.5591 0.0717 -1.7275 -4.7531 0.0000 0.0000 0.0000 25.2546 3.8277 -21.4765 -4.9995 -13.3832 40.8206 -1.5587 -0.1465 -23.6774 -1.9234 -8.7046 24.8755 -1.0353 1.4865 7.5375 3.6035 1.8855 5.6601 4.1941 0.8471 1.4791 -13.3793 3.2106 -9.5908 5.0743 6.5665 41.7122 5.6078 1.3541 15.8434 0.0000 0.0000 0.0000 -84.3416 -1.5769 0.3979 24.7475 -35.9448 -8.1412 -0.0000 -0.0000 1.5376 11.6243 35.0980 6.7456 -7.1250 0.0000 -0.0000 -26.8783 63.6671 -12.6182 0.0000 0.0000 0.0000 83.9096 -1.2601 5.8821 -16.1256 25.6906 -3.7002 0.0000 -0.0000 -9.8462 -7.8263 14.5978 -1.9841 7.1250 -0.0000 -0.0000 13.3362 -15.5093 9.5504
11.8430 17.7043 -45.9551 -5.5200 -6.8451 2.8160 0.0000 0.0000 0.0000 -7.8535 -11.1048 -23.9570 10.0245 17.4236 59.5701 0.0733 -8.7075 -7.4190 0.0886 -1.9199 -5.2845 0.0000 0.0000 0.0000 25.4258 3.9262 -21.1416 -4.9430 -13.3193 40.5759 -1.5358 0.3185 -23.3489 -1.9309 -8.7206 24.9253 -0.7505 1.7462 8.0537 3.6248 2.2449 5.8056 4.0193 1.0341 1.3264 -13.5122 3.1433 -10.0661 5.0030 6.6244 41.7428 5.6344 1.3407 15.9722 -0.0000 0.0000 0.0000 -84.4893 -1.6907 0.2019 24.7227 -35.9192 -8.1267 -0.0000 -0.0000 1.4577 11.7127 35.1419 6.8052 -7.1250 0.0000 -0.0000 -26.8314 63.7288 -12.6332 -0.0000 0.0000 0.0000 83.5377 -0.7527 5.4309 -15.9320 25.4284 -3.6167 0.0000 -0.0000 -10.0716 -7.1365 15.3526 -1.8986 7.1250 -0.0000 -0.0000 13.7655 -14.8104 10.0898
11.8318 17.7130 -45.9462 -5.6613 -7.3338 2.8458 0.0000 0.0000 0.0000 -7.4038 -10.7297 -24.8166 10.2650 17.5562 60.3704 0.0123 -8.9717 -6.5153 0.1030 -2.0696 -5.6981 0.0000 0.0000 0.0000 25.5970 4.1817 -20.9171 -4.8993 -13.2695 40.3857 -1.5400 0.5927 -23.2952 -1.8464 -8.5385 24.3619 -0.5643 2.0218 8.1224 3.6047 2.6317 5.5018 3.8540 1.2412 0.9515 -13.1587 3.2699 -8.7347 4.7927 6.5569 41.5765 5.3943 1.3715 15.5968 0.0000 -0.0000 0.0000 -84.4544 -0.9060 0.4350 24.6694 -35.8642 -8.0954 -0.0000 -0.0000 1.4283 11.2604 35.0907 6.5295 -7.1250 0.0000 -0.0000 -27.2585 63.5642 -12.7447 0.0000 -0.0000 0.0000 83.3458 -1.5058 5.7369 -16.1147 25.6759 -3.6955 0.0000 -0.0000 -10.2912 -7.8445 14.7164 -2.0045 7.1250 -0.0000 -0.0000 13.3193 -15.3920 9.5723
11.8116 17.7167 -45.9289 -5.8560 -7.3045 2.9634 0.0000 0.0000 0.0000 -6.8027 -10.7082 -25.6354 10.4887 17.6756 61.1095 -0.0244 -9.3531 -6.1112 0.1982 -2.8668 -7.9082 0.0000 0.0000 0.0000 25.9043 4.2355 -20.8528 -4.8734 -13.2398 40.2727 -1.5503 0.4671 -23.4137 -1.8245 -8.4906 24.2143 -0.3707 2.0784 7.9994 3.6792 2.7088 5.7579 3.8281 1.2771 1.2855 -13.3541 3.2012 -9.4456 4.8837 6.6138 41.7304 5.5224 1.3588 15.8307 0.0000 -0.0000 0.0000 -84.5603 -1.3726 0.2849 24.5295 -35.7192 -8.0136 -0.0000 -0.0000 1.4506 10.7065 34.8172 6.1613 -7.1250 0.0000 -0.0000 -27.5509 63.1810 -12.6451 0.0000 -0.0000 0.0000 82.9193 -0.8572 5.4284 -15.9959 25.5151 -3.6442 0.0000 -0.0000 -11.0430 -6.8845 16.0073 -1.9069 7.1250 -0.0000 -0.0000 13.9064 -14.1861 10.3907
11.7913 17.7115 -45.9106 -5.9977 -6.9891 3.0627 0.0000 0.0000 0.0000 -6.2677 -10.9861 -26.3390 10.6903 17.7802 61.7717 -0.0191 -9.6761 -6.4489 0.4273 -4.1951 -11.6263 0.0000 0.0000 0.0000 26.1657 4.1215 -20.8739 -4.8623 -13.2270 40.2244 -1.5538 0.2952 -23.4945 -1.9508 -8.7628 25.0560 -0.1874 2.0952 7.8297 3.6762 2.7482 5.5223 3.7183 1.3063 1.1391 -13.1313 3.2196 -8.4614 4.8594 6.4148 41.6150 5.3922 1.3291 15.5656 0.0000 -0.0000 0.0000 -84.4872 -0.7300 0.5010 24.4613 -35.6483 -7.9738 -0.0000 -0.0000 1.4031 10.4169 34.6034 5.9602 -7.1250 0.0000 -0.0000 -27.6293 62.9201 -12.5150 0.0000 -0.0000 0.0000 82.8074 -1.3687 5.3687 -16.1607 25.7380 -3.7155 0.0000 -0.0000 -11.6226 -6.7349 16.1471 -1.8810 7.1250 -0.0000 -0.0000 13.9996 -14.0586 10.5040
11.7758 17.7057 -45.8972 -6.0646 -6.7489 3.1575 0.0000 0.0000 0.0000 -5.8460 -11.3261 -27.0224 10.8699 17.8708 62.3584 -0.0125 -10.2257 -6.9639 0.4778 -4.4328 -12.2976 0.0000 0.0000 0.0000 26.3053 4.1080 -20.9200 -4.8668 -13.2322 40.2441 -1.5623 0.2525 -23.5727 -2.0215 -8.9107 25.5163 -0.4312 1.8154 7.4470 3.9520 2.3725 5.0696 4.1714 1.1162 0.8849 -13.1833 3.6377 -6.5760 4.4092 6.8529 41.2820 5.1406 1.4970 14.9349 -0.0000 0.0000 0.0000 -85.1684 0.7998 -0.2588 24.5220 -35.7114 -8.0092 -0.0000 -0.0000 1.4394 10.1147 34.2197 5.7288 -7.1250 0.0000 -0.0000 -27.5467 62.5090 -12.2082 -0.0000 0.0000 0.0000 82.0009 -2.3012 6.7509 -16.3667 26.0153 -3.8054 0.0000 -0.0000 -12.0059 -7.5757 15.3785 -2.0200 7.1250 -0.0000 -0.0000 13.4729 -14.7592 9.8776
11.7644 17.7029 -45.8934 -6.2031 -6.4346 3.2835 0.0000 0.0000 0.0000 -5.3458 -11.7563 -27.7115 11.0040 17.9370 62.7946 -0.0324 -10.9823 -7.1982 0.3167 -3.6178 -10.0038 0.0000 0.0000 0.0000 26.5146 4.0140 -21.0363 -4.8502 -13.2131 40.1715 -1.5701 0.0460 -23.6996 -1.8663 -8.5818 24.4957 -0.2766 1.6319 8.0302 4.0298 2.1680 4.4980 4.1518 1.0318 -0.0116 -13.1399 3.8771 -5.8734 4.2224 7.1496 41.3837 5.0573 1.6087 14.8090 -0.0000 -0.0000 0.0000 -85.4348 2.0053 -0.5743 24.5375 -35.7276 -8.0183 -0.0000 -0.0000 1.2841 9.7611 34.0908 5.5077 -7.1250 0.0000 -0.0000 -27.7844 62.3071 -12.1900 -0.0000 -0.0000 0.0000 81.5636 -3.0491 8.0218 -16.6181 26.3515 -3.9163 0.0000 -0.0000 -12.1117 -9.1078 14.2458 -2.2592 7.1250 -0.0000 -0.0000 12.4881 -15.7804 8.8364
11.7518 17.6995 -45.8957 -6.1961 -5.8782 3.4578 0.0000 0.0000 0.0000 -4.9788 -12.4360 -28.4587 11.0958 17.9816 63.0922 -0.0461 -11.5244 -7.3969 0.2366 -3.1306 -8.6424 0.0000 0.0000 0.0000 26.5761 3.7477 -21.3034 -4.8380 -13.1990 40.1179 -1.5886 -0.1817 -23.9163 -1.7460 -8.3156 23.6769 -0.3432 1.4434 8.0569 4.1710 1.9151 4.5022 4.3581 0.9026 -0.0091 -13.2930 3.9144 -5.9908 4.0807 7.3059 41.2901 5.0403 1.6411 14.7799 -0.0000 0.0000 0.0000 -85.8651 1.8940 -1.0530 24.3037 -35.4838 -7.8822 -0.0000 -0.0000 1.3579 9.5238 34.2143 5.3891 -7.1250 0.0000 -0.0000 -28.1587 62.3540 -12.3996 -0.0000 0.0000 0.0000 80.9451 -2.5281 7.4580 -16.4131 26.0776 -3.8258 0.0000 -0.0000 -12.6365 -7.8672 15.7326 -2.1457 7.1250 -0.0000 -0.0000 13.2669 -14.3946 9.8240
11.7693 17.7149 -45.8085 -6.2254 -7.4802 2.9699 0.0000 0.0000 0.0000 -5.1831 -11.1946 -27.7227 11.0823 17.9751 63.0487 0.0190 -11.4889 -8.3312 0.2587 -3.2723 -9.0378 0.0000 0.0000 0.0000 26.5182 3.9489 -20.1511 -4.8027 -13.1581 39.9631 -1.5769 0.6239 -23.5672 -1.7383 -8.2982 23.6235 -0.0893 1.9426 7.7016 4.0967 2.5678 4.9828 4.1045 1.2224 0.6476 -13.4445 3.8945 -6.2241 4.0736 7.3609 41.3467 5.0848 1.6349 14.8531 0.0000 -0.0000 0.0000 -86.2040 1.7642 -1.5433 23.9623 -35.1244 -7.6849 -0.0000 -0.0000 1.6153 9.3440 33.9036 5.2441 -7.1250 0.0000 -0.0000 -28.0284 62.0395 -12.1289 0.0000 -0.0000 0.0000 80.5228 -2.1616 7.2927 -16.4083 26.0712 -3.8237 0.0000 -0.0000 -12.5906 -7.9692 16.1891 -2.2352 7.1250 -0.0000 -0.0000 13.1848 -13.9406 9.8906
